<svg width="418" height="144" viewBox="0 0 418 144" fill="none" xmlns="http://www.w3.org/2000/svg">
<path d="M8.0653 119.83C7.78642 119.952 7.45734 120.097 7.07806 120.263C6.69877 120.43 6.30276 120.625 5.89001 120.847C5.47726 121.058 5.0701 121.297 4.6685 121.564C4.26691 121.82 3.90437 122.103 3.58086 122.414C3.26851 122.714 3.01194 123.042 2.81114 123.398C2.6215 123.743 2.52668 124.115 2.52668 124.515C2.52668 124.926 2.63823 125.266 2.86134 125.532C3.0956 125.799 3.3968 126.016 3.76492 126.183C4.13305 126.338 4.55137 126.449 5.0199 126.516C5.48842 126.572 5.9681 126.599 6.45894 126.599C6.97208 126.599 7.50196 126.572 8.04857 126.516C8.59518 126.449 9.07486 126.377 9.48761 126.299C9.33143 125.532 9.16968 124.593 9.00235 123.481C8.84617 122.359 8.67884 121.086 8.50036 119.663L8.0653 119.83ZM6.55933 129.167C5.6446 129.167 4.78564 129.095 3.98245 128.95C3.19042 128.795 2.49879 128.545 1.90756 128.2C1.31633 127.844 0.847806 127.389 0.501991 126.833C0.167331 126.266 0 125.571 0 124.749C0 124.015 0.156174 123.331 0.468523 122.698C0.780872 122.064 1.18804 121.481 1.69003 120.947C2.19202 120.402 2.74979 119.913 3.36333 119.48C3.98803 119.035 4.60157 118.652 5.20396 118.329C5.80635 117.996 6.36969 117.718 6.89399 117.495C7.41829 117.262 7.8422 117.09 8.1657 116.979L7.9147 114.561L10.5418 113.994C10.5529 114.083 10.5753 114.277 10.6087 114.578C10.6422 114.878 10.6756 115.228 10.7091 115.628C10.7537 116.028 10.7984 116.451 10.843 116.895C10.8988 117.34 10.9434 117.762 10.9768 118.162C11.0215 118.563 11.0605 118.907 11.094 119.196C11.1274 119.485 11.1498 119.669 11.1609 119.746C11.3394 121.203 11.5011 122.392 11.6462 123.315C11.8023 124.237 11.9362 124.971 12.0478 125.516C12.1593 126.06 12.2485 126.455 12.3155 126.699C12.3936 126.933 12.4493 127.089 12.4828 127.166V127.15C12.6278 127.494 12.7952 127.778 12.9848 128C13.1744 128.222 13.3975 128.4 13.6541 128.534C13.9219 128.667 14.223 128.761 14.5577 128.817C14.8924 128.873 15.2716 128.9 15.6955 128.9H16.0302V131.502H15.6955C15.2716 131.502 14.7808 131.468 14.223 131.401C13.6653 131.335 13.1131 131.174 12.5665 130.918H12.5832C11.7354 130.529 11.0047 129.829 10.3912 128.817C8.88522 129.05 7.60793 129.167 6.55933 129.167Z" fill="white"/>
<path d="M31.1962 128.9V131.502H15.3501V128.9H31.1962Z" fill="white"/>
<path d="M46.3801 128.9V131.502H30.534V128.9H46.3801Z" fill="white"/>
<path d="M45.7179 128.9H47.6589C48.3282 128.9 48.9418 128.878 49.4995 128.834C50.0684 128.789 50.5816 128.695 51.039 128.55C51.5075 128.395 51.9202 128.178 52.2772 127.9C52.6453 127.622 52.9688 127.244 53.2477 126.766C53.415 126.488 53.5099 126.138 53.5322 125.716C53.5433 125.605 53.5489 125.499 53.5489 125.399C53.5489 125.065 53.5154 124.682 53.4485 124.248C53.3816 123.804 53.27 123.304 53.1138 122.748C52.9577 122.192 52.7848 121.642 52.5951 121.097C52.4166 120.541 52.2214 120.008 52.0095 119.496C51.8087 118.974 51.6246 118.496 51.4573 118.062L53.8166 116.879C54.0286 117.39 54.2517 117.946 54.486 118.546C54.7314 119.135 54.9601 119.746 55.172 120.38C55.384 121.014 55.5736 121.664 55.7409 122.331C55.9083 122.987 56.0254 123.631 56.0923 124.265C56.1258 124.61 56.1425 124.949 56.1425 125.282C56.1425 125.56 56.1202 125.921 56.0756 126.366C56.0421 126.8 55.9083 127.277 55.674 127.8C55.3505 128.511 54.9545 129.106 54.486 129.584C54.0286 130.062 53.4931 130.446 52.8796 130.735C52.266 131.012 51.58 131.213 50.8214 131.335C50.074 131.446 49.2597 131.502 48.3784 131.502H45.7179V128.9ZM53.5154 110.893L51.0557 113.344L48.5959 110.893L51.0557 108.442L53.5154 110.893Z" fill="white"/>
<path d="M68.5959 131.502C67.5808 131.502 66.6716 131.396 65.8684 131.185C65.0652 130.962 64.3848 130.612 63.827 130.134C63.2692 129.656 62.8398 129.039 62.5386 128.283C62.2485 127.516 62.1035 126.588 62.1035 125.499C62.1035 124.676 62.1035 123.759 62.1035 122.748C62.1147 121.736 62.1202 120.686 62.1202 119.596C62.1202 118.507 62.1091 117.401 62.0868 116.278C62.0756 115.156 62.0533 114.066 62.0198 113.01C61.9864 111.943 61.9362 110.937 61.8693 109.992C61.8023 109.047 61.7187 108.203 61.6183 107.458L64.2286 106.991C64.329 107.58 64.4127 108.275 64.4796 109.075C64.5465 109.875 64.6023 110.737 64.6469 111.66C64.6915 112.582 64.7194 113.544 64.7306 114.544C64.7529 115.534 64.7641 116.506 64.7641 117.462C64.7641 118.829 64.7696 120.147 64.7808 121.414C64.7808 121.836 64.7808 122.264 64.7808 122.698C64.7808 123.543 64.7752 124.387 64.7641 125.232C64.7641 125.955 64.8198 126.549 64.9314 127.016C65.0541 127.483 65.2549 127.861 65.5338 128.15C65.8238 128.428 66.2031 128.623 66.6716 128.734C67.1401 128.845 67.7314 128.9 68.4453 128.9H68.9306V131.502H68.5959Z" fill="white"/>
<path d="M84.1143 128.9V131.502H68.2682V128.9H84.1143Z" fill="white"/>
<path d="M99.2982 128.9V131.502H83.4521V128.9H99.2982Z" fill="white"/>
<path d="M113.562 128.9V131.502H113.227C112.156 131.502 111.247 131.296 110.5 130.885C109.752 130.462 109.122 129.923 108.609 129.267C108.23 129.645 107.806 129.973 107.337 130.251C106.88 130.529 106.35 130.762 105.747 130.951C105.156 131.129 104.481 131.268 103.723 131.368C102.975 131.457 102.116 131.502 101.146 131.502H98.6359V128.9H101.146C102.284 128.9 103.249 128.811 104.041 128.634C104.844 128.445 105.491 128.172 105.982 127.817C106.484 127.45 106.846 127 107.069 126.466C107.292 125.921 107.404 125.288 107.404 124.565C107.404 123.965 107.359 123.354 107.27 122.731C107.192 122.109 107.041 121.403 106.818 120.613C107.287 120.491 107.711 120.374 108.09 120.263C108.481 120.141 108.893 120.019 109.328 119.897C109.418 120.23 109.496 120.569 109.563 120.914C109.63 121.247 109.685 121.603 109.73 121.981C109.786 122.348 109.836 122.753 109.881 123.198C109.925 123.643 109.97 124.137 110.014 124.682C110.048 125.127 110.115 125.599 110.215 126.099C110.316 126.588 110.483 127.044 110.717 127.466C110.951 127.878 111.269 128.222 111.671 128.5C112.073 128.767 112.591 128.9 113.227 128.9H113.562ZM104.626 137.287L102.183 139.722L99.7069 137.271L102.15 134.82L104.626 137.287ZM110.567 137.321L108.14 139.755L105.664 137.287L108.107 134.853L110.567 137.321Z" fill="white"/>
<path d="M113.215 128.9C114.197 128.9 115.028 128.745 115.708 128.434C116.4 128.111 116.997 127.689 117.499 127.166C118.001 126.644 118.436 126.049 118.804 125.382C119.183 124.704 119.551 124.009 119.908 123.298C120.198 122.698 120.483 122.131 120.761 121.597C121.052 121.053 121.375 120.569 121.732 120.147C122.68 119.002 123.812 118.429 125.129 118.429C126.702 118.429 128.018 119.063 129.078 120.33C129.491 120.83 129.825 121.414 130.082 122.081C130.338 122.737 130.517 123.426 130.617 124.148C130.673 124.593 130.701 125.032 130.701 125.466C130.701 125.755 130.673 126.155 130.617 126.666C130.573 127.177 130.428 127.739 130.182 128.35C129.881 129.084 129.479 129.701 128.977 130.201C128.475 130.69 127.906 131.018 127.271 131.185C126.88 131.285 126.456 131.335 125.999 131.335C125.162 131.335 124.242 131.135 123.238 130.735C122.178 130.312 120.996 129.629 119.691 128.684C119.311 129.195 118.876 129.629 118.385 129.984C117.895 130.34 117.365 130.635 116.796 130.868C116.238 131.09 115.658 131.251 115.056 131.351C114.453 131.452 113.845 131.502 113.232 131.502H112.88V128.9H113.215ZM121.213 126.516C121.693 126.872 122.178 127.189 122.669 127.466C123.171 127.733 123.651 127.961 124.108 128.15C124.577 128.339 125.012 128.484 125.413 128.584C125.826 128.684 126.177 128.734 126.467 128.734C126.579 128.734 126.685 128.728 126.785 128.717C126.886 128.706 126.992 128.684 127.103 128.65C127.438 128.539 127.706 128.283 127.906 127.883C128.118 127.472 128.258 126.994 128.325 126.449C128.358 126.194 128.375 125.932 128.375 125.666C128.375 125.366 128.342 124.982 128.275 124.515C128.208 124.048 128.046 123.554 127.789 123.031C127.533 122.509 127.181 122.064 126.735 121.697C126.3 121.33 125.765 121.119 125.129 121.064C125.084 121.064 125.045 121.064 125.012 121.064C124.777 121.064 124.554 121.125 124.342 121.247C124.142 121.369 123.93 121.575 123.706 121.864C123.495 122.142 123.271 122.498 123.037 122.931C122.803 123.365 122.541 123.87 122.251 124.448L121.213 126.516Z" fill="white"/>
<path d="M140.769 121.414C140.948 121.992 141.149 122.648 141.372 123.381C141.606 124.104 141.824 124.86 142.024 125.649C142.225 126.427 142.393 127.222 142.526 128.033C142.671 128.834 142.744 129.601 142.744 130.334C142.744 131.257 142.605 132.157 142.326 133.036C142.058 133.914 141.684 134.753 141.205 135.553C140.725 136.365 140.15 137.137 139.481 137.871C138.823 138.616 138.103 139.316 137.322 139.972C136.542 140.628 135.711 141.234 134.829 141.789C133.959 142.356 133.072 142.868 132.169 143.323L131.014 140.989C132.185 140.389 133.318 139.7 134.411 138.921C135.504 138.154 136.475 137.315 137.322 136.404C138.17 135.503 138.851 134.542 139.364 133.519C139.877 132.496 140.134 131.435 140.134 130.334C140.134 129.734 140.072 129.095 139.95 128.417C139.827 127.739 139.671 127.05 139.481 126.349C139.291 125.638 139.085 124.932 138.862 124.232C138.639 123.531 138.427 122.853 138.226 122.198L140.769 121.414Z" fill="white"/>
<path d="M146.776 140.589C148.472 140.222 150 139.711 151.361 139.055C152.722 138.399 153.888 137.66 154.858 136.837C155.84 136.026 156.615 135.159 157.184 134.236C157.764 133.313 158.121 132.402 158.255 131.502C157.887 131.513 157.524 131.518 157.167 131.518C156.643 131.518 156.041 131.507 155.36 131.485C154.68 131.452 153.96 131.374 153.202 131.251C152.454 131.118 151.768 130.929 151.143 130.685C150.53 130.429 150 130.09 149.554 129.667C149.108 129.234 148.762 128.706 148.516 128.083C148.271 127.461 148.148 126.716 148.148 125.849C148.159 125.316 148.221 124.754 148.332 124.165C148.455 123.565 148.622 122.976 148.834 122.398C149.057 121.82 149.325 121.269 149.637 120.747C149.95 120.213 150.312 119.752 150.725 119.363C151.138 118.963 151.595 118.646 152.097 118.413C152.599 118.168 153.151 118.046 153.754 118.046C154.579 118.046 155.327 118.229 155.996 118.596C156.665 118.952 157.262 119.43 157.786 120.03C158.322 120.63 158.785 121.325 159.175 122.114C159.566 122.892 159.889 123.709 160.146 124.565C160.402 125.41 160.592 126.26 160.715 127.116C160.837 127.972 160.899 128.773 160.899 129.517C160.899 130.773 160.726 131.957 160.38 133.069C160.045 134.18 159.577 135.209 158.974 136.154C158.372 137.11 157.652 137.971 156.816 138.738C155.979 139.516 155.059 140.2 154.055 140.789C153.051 141.389 151.986 141.884 150.859 142.273C149.732 142.673 148.578 142.968 147.395 143.157L146.776 140.589ZM153.754 120.664C153.341 120.664 152.934 120.83 152.532 121.164C152.131 121.497 151.768 121.92 151.445 122.431C151.132 122.942 150.876 123.498 150.675 124.098C150.485 124.699 150.39 125.266 150.39 125.799C150.446 126.344 150.619 126.794 150.909 127.15C151.199 127.505 151.567 127.794 152.013 128.017C152.46 128.239 152.956 128.406 153.503 128.517C154.06 128.617 154.624 128.689 155.193 128.734C155.773 128.767 156.336 128.784 156.883 128.784C157.429 128.784 157.92 128.784 158.355 128.784C158.355 128.283 158.305 127.739 158.205 127.15C158.115 126.549 157.982 125.949 157.803 125.349C157.625 124.749 157.401 124.165 157.134 123.598C156.866 123.031 156.559 122.531 156.213 122.097C155.879 121.664 155.505 121.319 155.092 121.064C154.68 120.797 154.233 120.664 153.754 120.664Z" fill="white"/>
<path d="M173.568 131.502C172.553 131.502 171.643 131.396 170.84 131.185C170.037 130.962 169.357 130.612 168.799 130.134C168.241 129.656 167.812 129.039 167.51 128.283C167.22 127.516 167.075 126.588 167.075 125.499C167.075 124.676 167.075 123.759 167.075 122.748C167.086 121.736 167.092 120.686 167.092 119.596C167.092 118.507 167.081 117.401 167.059 116.278C167.047 115.156 167.025 114.066 166.992 113.01C166.958 111.943 166.908 110.937 166.841 109.992C166.774 109.047 166.69 108.203 166.59 107.458L169.2 106.991C169.301 107.58 169.384 108.275 169.451 109.075C169.518 109.875 169.574 110.737 169.619 111.66C169.663 112.582 169.691 113.544 169.702 114.544C169.725 115.534 169.736 116.506 169.736 117.462C169.736 118.829 169.741 120.147 169.753 121.414C169.753 121.836 169.753 122.264 169.753 122.698C169.753 123.543 169.747 124.387 169.736 125.232C169.736 125.955 169.792 126.549 169.903 127.016C170.026 127.483 170.227 127.861 170.506 128.15C170.796 128.428 171.175 128.623 171.643 128.734C172.112 128.845 172.703 128.9 173.417 128.9H173.902V131.502H173.568Z" fill="white"/>
<path d="M189.086 128.9V131.502H173.24V128.9H189.086Z" fill="white"/>
<path d="M204.27 128.9V131.502H188.424V128.9H204.27Z" fill="white"/>
<path d="M203.608 128.9H207.239C208.745 128.9 210.267 128.75 211.807 128.45C213.346 128.139 214.869 127.733 216.375 127.233C217.892 126.733 219.381 126.16 220.843 125.516C222.315 124.871 223.737 124.204 225.11 123.515L220.123 121.447C219.588 121.225 219.063 121.003 218.55 120.78C218.048 120.547 217.557 120.336 217.078 120.147C216.609 119.958 216.163 119.808 215.739 119.696C215.315 119.574 214.919 119.513 214.551 119.513C214.127 119.513 213.726 119.591 213.346 119.746C212.967 119.891 212.61 120.085 212.275 120.33C211.952 120.575 211.651 120.847 211.372 121.147C211.093 121.447 210.842 121.747 210.619 122.047C210.407 122.348 210.217 122.631 210.05 122.898C209.894 123.153 209.771 123.359 209.682 123.515L207.44 122.181C207.562 121.925 207.735 121.614 207.958 121.247C208.193 120.869 208.522 120.425 208.945 119.913C209.782 118.902 210.669 118.146 211.606 117.646C212.554 117.145 213.536 116.895 214.551 116.895C215.075 116.895 215.605 116.956 216.141 117.079C216.687 117.201 217.239 117.362 217.797 117.562C218.355 117.762 218.918 117.996 219.487 118.262C220.067 118.518 220.653 118.785 221.244 119.063C221.891 119.363 222.477 119.652 223.001 119.93C223.537 120.197 224.061 120.458 224.574 120.714C225.087 120.958 225.617 121.203 226.164 121.447C226.722 121.692 227.346 121.942 228.038 122.198C228.127 122.687 228.216 123.131 228.306 123.531C228.395 123.92 228.484 124.348 228.573 124.815C228.183 124.971 227.865 125.104 227.62 125.215C227.385 125.316 227.157 125.421 226.933 125.532C226.722 125.632 226.493 125.749 226.247 125.882C226.002 126.005 225.678 126.166 225.277 126.366C224.072 126.955 222.761 127.555 221.345 128.167C219.928 128.778 218.444 129.334 216.894 129.834C215.354 130.323 213.77 130.723 212.141 131.035C210.513 131.346 208.879 131.502 207.239 131.502H203.608V128.9ZM216.894 110.726L214.434 113.177L211.974 110.726L214.434 108.275L216.894 110.726Z" fill="white"/>
<path d="M281.32 128.9V131.502H280.986C280.116 131.502 279.262 131.429 278.426 131.285C277.6 131.129 276.814 130.885 276.066 130.551C275.319 130.218 274.627 129.784 273.991 129.251C273.355 128.717 272.803 128.067 272.335 127.3C271.911 127.944 271.37 128.5 270.712 128.967C270.065 129.423 269.345 129.806 268.553 130.118C267.772 130.429 266.941 130.679 266.06 130.868C265.179 131.057 264.297 131.201 263.416 131.301C262.535 131.402 261.676 131.463 260.839 131.485C260.415 131.496 260.008 131.502 259.618 131.502C259.227 131.502 258.854 131.496 258.497 131.485C257.504 131.463 256.455 131.418 255.351 131.351C254.246 131.274 253.148 131.14 252.054 130.951C250.972 130.751 249.929 130.479 248.925 130.134C247.932 129.779 247.057 129.317 246.298 128.75C245.54 128.183 244.937 127.489 244.491 126.666C244.045 125.832 243.822 124.838 243.822 123.681C243.822 123.304 243.877 122.864 243.989 122.364C244.101 121.853 244.246 121.342 244.424 120.83C244.614 120.308 244.82 119.808 245.043 119.33C245.277 118.84 245.506 118.418 245.729 118.062L247.854 119.613C247.642 119.98 247.447 120.324 247.269 120.647C247.101 120.969 246.951 121.292 246.817 121.614C246.694 121.925 246.588 122.248 246.499 122.581C246.421 122.914 246.365 123.276 246.332 123.665C246.354 124.721 246.689 125.582 247.336 126.249C247.983 126.905 248.853 127.422 249.946 127.8C251.039 128.178 252.322 128.445 253.795 128.6C255.267 128.745 256.846 128.828 258.53 128.85C258.675 128.85 258.826 128.85 258.982 128.85C259.606 128.85 260.326 128.834 261.14 128.8C261.955 128.767 262.825 128.695 263.751 128.584C264.677 128.472 265.575 128.311 266.445 128.1C267.315 127.889 268.085 127.617 268.754 127.283C269.434 126.938 269.975 126.522 270.377 126.033C270.79 125.543 270.996 124.96 270.996 124.282C270.996 123.804 270.851 123.281 270.561 122.714C270.271 122.147 269.886 121.564 269.406 120.964C268.927 120.352 268.375 119.735 267.75 119.113C267.136 118.49 266.5 117.885 265.842 117.295C265.195 116.695 264.548 116.128 263.901 115.595C263.265 115.061 262.685 114.578 262.161 114.144C262.217 113.544 262.278 112.966 262.345 112.41C262.423 111.843 262.49 111.271 262.546 110.693L276.434 104.923L277.472 107.324L264.152 112.66C265.056 113.416 265.971 114.188 266.896 114.978C267.834 115.756 268.704 116.551 269.507 117.362C270.31 118.162 271.018 118.979 271.632 119.813C272.245 120.647 272.697 121.486 272.987 122.331C273.188 122.876 273.394 123.431 273.606 123.998C273.83 124.554 274.108 125.093 274.443 125.616C274.778 126.127 275.185 126.611 275.665 127.066C276.144 127.511 276.741 127.9 277.455 128.233C277.924 128.456 278.448 128.623 279.028 128.734C279.608 128.834 280.249 128.889 280.952 128.9H281.32Z" fill="white"/>
<path d="M296.501 128.9V131.502H280.655V128.9H296.501Z" fill="white"/>
<path d="M311.685 128.9V131.502H295.838V128.9H311.685Z" fill="white"/>
<path d="M311.022 128.9H312.963C313.633 128.9 314.246 128.878 314.804 128.834C315.373 128.789 315.886 128.695 316.343 128.55C316.812 128.395 317.225 128.178 317.582 127.9C317.95 127.622 318.273 127.244 318.552 126.766C318.72 126.488 318.814 126.138 318.837 125.716C318.848 125.605 318.853 125.499 318.853 125.399C318.853 125.065 318.82 124.682 318.753 124.248C318.686 123.804 318.575 123.304 318.418 122.748C318.262 122.192 318.089 121.642 317.9 121.097C317.721 120.541 317.526 120.008 317.314 119.496C317.113 118.974 316.929 118.496 316.762 118.062L319.121 116.879C319.333 117.39 319.556 117.946 319.79 118.546C320.036 119.135 320.265 119.746 320.477 120.38C320.688 121.014 320.878 121.664 321.045 122.331C321.213 122.987 321.33 123.631 321.397 124.265C321.43 124.61 321.447 124.949 321.447 125.282C321.447 125.56 321.425 125.921 321.38 126.366C321.347 126.8 321.213 127.277 320.978 127.8C320.655 128.511 320.259 129.106 319.79 129.584C319.333 130.062 318.798 130.446 318.184 130.735C317.571 131.012 316.884 131.213 316.126 131.335C315.379 131.446 314.564 131.502 313.683 131.502H311.022V128.9ZM318.82 110.893L316.36 113.344L313.9 110.893L316.36 108.442L318.82 110.893Z" fill="white"/>
<path d="M333.9 131.502C332.885 131.502 331.976 131.396 331.173 131.185C330.37 130.962 329.689 130.612 329.132 130.134C328.574 129.656 328.144 129.039 327.843 128.283C327.553 127.516 327.408 126.588 327.408 125.499C327.408 124.676 327.408 123.759 327.408 122.748C327.419 121.736 327.425 120.686 327.425 119.596C327.425 118.507 327.414 117.401 327.391 116.278C327.38 115.156 327.358 114.066 327.324 113.01C327.291 111.943 327.241 110.937 327.174 109.992C327.107 109.047 327.023 108.203 326.923 107.458L329.533 106.991C329.634 107.58 329.717 108.275 329.784 109.075C329.851 109.875 329.907 110.737 329.951 111.66C329.996 112.582 330.024 113.544 330.035 114.544C330.057 115.534 330.069 116.506 330.069 117.462C330.069 118.829 330.074 120.147 330.085 121.414C330.085 121.836 330.085 122.264 330.085 122.698C330.085 123.543 330.08 124.387 330.069 125.232C330.069 125.955 330.124 126.549 330.236 127.016C330.359 127.483 330.559 127.861 330.838 128.15C331.128 128.428 331.508 128.623 331.976 128.734C332.445 128.845 333.036 128.9 333.75 128.9H334.235V131.502H333.9Z" fill="white"/>
<path d="M333.573 128.9H335.514C336.183 128.9 336.797 128.878 337.354 128.834C337.923 128.789 338.436 128.695 338.894 128.55C339.362 128.395 339.775 128.178 340.132 127.9C340.5 127.622 340.824 127.244 341.103 126.766C341.27 126.488 341.365 126.138 341.387 125.716C341.398 125.605 341.404 125.499 341.404 125.399C341.404 125.065 341.37 124.682 341.303 124.248C341.236 123.804 341.125 123.304 340.969 122.748C340.812 122.192 340.64 121.642 340.45 121.097C340.271 120.541 340.076 120.008 339.864 119.496C339.664 118.974 339.479 118.496 339.312 118.062L341.671 116.879C341.883 117.39 342.107 117.946 342.341 118.546C342.586 119.135 342.815 119.746 343.027 120.38C343.239 121.014 343.428 121.664 343.596 122.331C343.763 122.987 343.88 123.631 343.947 124.265C343.981 124.61 343.997 124.949 343.997 125.282C343.997 125.56 343.975 125.921 343.93 126.366C343.897 126.8 343.763 127.277 343.529 127.8C343.205 128.511 342.809 129.106 342.341 129.584C341.883 130.062 341.348 130.446 340.734 130.735C340.121 131.012 339.435 131.213 338.676 131.335C337.929 131.446 337.115 131.502 336.233 131.502H333.573V128.9ZM341.437 137.788L338.977 140.239L336.518 137.788L338.977 135.337L341.437 137.788Z" fill="white"/>
<path d="M347.549 140.589C349.245 140.222 350.773 139.711 352.134 139.055C353.495 138.399 354.661 137.66 355.631 136.837C356.613 136.026 357.388 135.159 357.957 134.236C358.537 133.313 358.894 132.402 359.028 131.502C358.66 131.513 358.297 131.518 357.94 131.518C357.416 131.518 356.814 131.507 356.133 131.485C355.453 131.452 354.733 131.374 353.975 131.251C353.227 131.118 352.541 130.929 351.916 130.685C351.303 130.429 350.773 130.09 350.327 129.667C349.88 129.234 349.535 128.706 349.289 128.083C349.044 127.461 348.921 126.716 348.921 125.849C348.932 125.316 348.994 124.754 349.105 124.165C349.228 123.565 349.395 122.976 349.607 122.398C349.83 121.82 350.098 121.269 350.41 120.747C350.723 120.213 351.085 119.752 351.498 119.363C351.911 118.963 352.368 118.646 352.87 118.413C353.372 118.168 353.924 118.046 354.527 118.046C355.308 118.046 356.021 118.212 356.669 118.546C357.327 118.868 357.912 119.307 358.426 119.863C358.939 120.419 359.39 121.064 359.781 121.797C360.171 122.531 360.5 123.298 360.768 124.098C361.036 124.899 361.242 125.716 361.387 126.549C361.532 127.372 361.621 128.156 361.655 128.9H363.646V131.502H361.504C361.337 132.569 361.041 133.575 360.618 134.52C360.194 135.475 359.664 136.354 359.028 137.154C358.403 137.965 357.684 138.699 356.869 139.355C356.066 140.022 355.196 140.605 354.259 141.106C353.333 141.617 352.351 142.045 351.314 142.39C350.288 142.734 349.239 142.99 348.168 143.157L347.549 140.589ZM354.527 120.664C354.114 120.664 353.707 120.83 353.305 121.164C352.904 121.497 352.541 121.92 352.218 122.431C351.905 122.942 351.649 123.498 351.448 124.098C351.258 124.699 351.163 125.266 351.163 125.799C351.219 126.344 351.392 126.794 351.682 127.15C351.972 127.505 352.34 127.794 352.786 128.017C353.233 128.239 353.729 128.406 354.276 128.517C354.833 128.617 355.397 128.689 355.966 128.734C356.546 128.767 357.109 128.784 357.656 128.784C358.202 128.784 358.693 128.784 359.128 128.784C359.128 128.283 359.078 127.739 358.978 127.15C358.888 126.549 358.755 125.949 358.576 125.349C358.398 124.749 358.174 124.165 357.907 123.598C357.639 123.031 357.332 122.531 356.986 122.097C356.652 121.664 356.278 121.319 355.865 121.064C355.453 120.797 355.006 120.664 354.527 120.664Z" fill="white"/>
<path d="M377.889 128.9V131.502H377.554C376.484 131.502 375.574 131.296 374.827 130.885C374.08 130.462 373.449 129.923 372.936 129.267C372.557 129.645 372.133 129.973 371.664 130.251C371.207 130.529 370.677 130.762 370.075 130.951C369.484 131.129 368.809 131.268 368.05 131.368C367.303 131.457 366.444 131.502 365.473 131.502H362.963V128.9H365.473C366.611 128.9 367.576 128.811 368.368 128.634C369.171 128.445 369.818 128.172 370.309 127.817C370.811 127.45 371.174 127 371.397 126.466C371.62 125.921 371.731 125.288 371.731 124.565C371.731 123.965 371.687 123.354 371.598 122.731C371.519 122.109 371.369 121.403 371.146 120.613C371.614 120.491 372.038 120.374 372.417 120.263C372.808 120.141 373.221 120.019 373.656 119.897C373.745 120.23 373.823 120.569 373.89 120.914C373.957 121.247 374.013 121.603 374.057 121.981C374.113 122.348 374.163 122.753 374.208 123.198C374.252 123.643 374.297 124.137 374.342 124.682C374.375 125.127 374.442 125.599 374.543 126.099C374.643 126.588 374.81 127.044 375.045 127.466C375.279 127.878 375.597 128.222 375.998 128.5C376.4 128.767 376.919 128.9 377.554 128.9H377.889ZM371.681 109.409C371.213 109.342 370.744 109.286 370.276 109.242C370.186 109.231 370.103 109.225 370.025 109.225C369.634 109.225 369.249 109.309 368.87 109.475C368.591 109.598 368.346 109.764 368.134 109.976C367.922 110.176 367.755 110.403 367.632 110.659C367.52 110.915 367.459 111.182 367.448 111.46C367.448 111.504 367.448 111.548 367.448 111.593C367.448 111.826 367.498 112.054 367.598 112.277C367.699 112.499 367.833 112.71 368 112.91C368.167 113.099 368.362 113.266 368.586 113.41C368.82 113.555 369.065 113.672 369.322 113.761C369.589 113.849 369.863 113.894 370.142 113.894C370.276 113.894 370.409 113.888 370.543 113.877C370.677 113.855 370.822 113.816 370.978 113.761C371.19 113.683 371.425 113.583 371.681 113.46C371.938 113.327 372.183 113.199 372.417 113.077C372.663 112.943 372.88 112.821 373.07 112.71C373.26 112.599 373.393 112.51 373.472 112.443L374.358 113.594C373.89 113.916 373.299 114.277 372.585 114.678C371.871 115.078 371.012 115.556 370.008 116.112L365.925 118.363C365.791 118.118 365.674 117.901 365.574 117.712C365.473 117.523 365.356 117.312 365.222 117.079L368.736 115.128C368.123 114.928 367.593 114.616 367.147 114.194C366.711 113.761 366.399 113.31 366.209 112.843C366.053 112.443 365.975 112.043 365.975 111.643C365.975 111.565 365.981 111.393 365.992 111.126C366.003 110.848 366.103 110.492 366.293 110.059C366.494 109.625 366.767 109.242 367.113 108.908C367.47 108.564 367.877 108.297 368.335 108.108C368.915 107.886 369.5 107.775 370.092 107.775C370.527 107.775 370.928 107.813 371.296 107.891C371.676 107.958 371.949 108.019 372.116 108.075L371.681 109.409Z" fill="white"/>
<path d="M393.054 128.9V131.502H377.208V128.9H393.054Z" fill="white"/>
<path d="M408.238 128.9V131.502H392.391V128.9H408.238Z" fill="white"/>
<path d="M407.575 128.9H409.516C410.186 128.9 410.799 128.878 411.357 128.834C411.926 128.789 412.439 128.695 412.896 128.55C413.365 128.395 413.778 128.178 414.135 127.9C414.503 127.622 414.826 127.244 415.105 126.766C415.272 126.488 415.367 126.138 415.39 125.716C415.401 125.605 415.406 125.499 415.406 125.399C415.406 125.065 415.373 124.682 415.306 124.248C415.239 123.804 415.127 123.304 414.971 122.748C414.815 122.192 414.642 121.642 414.453 121.097C414.274 120.541 414.079 120.008 413.867 119.496C413.666 118.974 413.482 118.496 413.315 118.062L415.674 116.879C415.886 117.39 416.109 117.946 416.343 118.546C416.589 119.135 416.817 119.746 417.029 120.38C417.241 121.014 417.431 121.664 417.598 122.331C417.766 122.987 417.883 123.631 417.95 124.265C417.983 124.61 418 124.949 418 125.282C418 125.56 417.978 125.921 417.933 126.366C417.9 126.8 417.766 127.277 417.531 127.8C417.208 128.511 416.812 129.106 416.343 129.584C415.886 130.062 415.351 130.446 414.737 130.735C414.123 131.012 413.437 131.213 412.679 131.335C411.931 131.446 411.117 131.502 410.236 131.502H407.575V128.9ZM415.373 110.893L412.913 113.344L410.453 110.893L412.913 108.442L415.373 110.893Z" fill="white"/>
<path d="M416.804 23.629L417.275 23.5119L417.378 71.2381L403.284 49.4087C401.836 47.1952 400.946 44.6669 400.69 42.0383C400.434 39.4097 400.819 36.7585 401.813 34.3096C402.779 31.8627 404.328 29.6857 406.327 27.9655C408.326 26.2453 410.714 25.0333 413.288 24.4337L416.804 23.629ZM406.889 0.0731592C408.261 0.0767751 409.618 0.353026 410.881 0.88568C412.144 1.41833 413.288 2.19665 414.244 3.17492C416.211 5.15843 417.306 7.83662 417.289 10.6221V20.4102L412.655 21.5075L409.993 22.1366C407.581 22.7163 405.068 22.7368 402.647 22.1964C400.226 21.656 397.963 20.5693 396.032 19.0202C394.243 17.6012 392.77 15.828 391.707 13.8131C390.643 11.7983 390.012 9.58565 389.853 7.31548C389.853 6.93507 389.853 6.5693 389.853 6.17426V0L406.889 0.0731592ZM323.638 10.5635C323.627 7.79548 324.72 5.13595 326.678 3.16903C328.637 1.20212 331.3 0.0886421 334.083 0.0731592H386.823V6.08648C386.793 6.52002 386.793 6.9551 386.823 7.38863C386.659 9.65933 386.025 11.8717 384.959 13.8863C383.893 15.9009 382.419 17.6739 380.629 19.0934C378.706 20.6362 376.453 21.7205 374.043 22.2632C371.634 22.806 369.131 22.7927 366.727 22.2244L323.579 12.2315L323.638 10.5635ZM334.083 93.287C331.3 93.2715 328.637 92.158 326.678 90.1911C324.72 88.2242 323.627 85.5646 323.638 82.7965V15.3332L363.02 24.4922C365.601 25.1123 367.995 26.3388 370.001 28.0689C372.007 29.799 373.567 31.9823 374.55 34.4357C375.533 36.8891 375.91 39.541 375.649 42.1692C375.389 44.7973 374.498 47.3251 373.053 49.5404L371.905 51.3107L344.793 93.2577L334.083 93.287ZM417.378 82.8551C417.366 85.6132 416.261 88.2555 414.303 90.2085C412.345 92.1615 409.691 93.2677 406.918 93.287H348.397L357.65 78.9486L374.436 52.9787C375.914 50.6795 377.95 48.787 380.356 47.4753C382.762 46.1637 385.461 45.4752 388.205 45.473C390.972 45.4766 393.693 46.1794 396.112 47.5153C398.53 48.8512 400.568 50.7765 402.034 53.1104L417.363 76.8271L417.378 82.8551Z" fill="#FF8C22"/>
<path d="M229.345 48.998C229.345 52.0549 228.814 54.2196 227.737 55.4774C227.086 56.1503 226.291 56.6693 225.41 56.9959C224.529 57.3225 223.586 57.4484 222.649 57.3643H198.89C198.088 57.3188 197.307 57.0938 196.604 56.7061C195.451 56.0886 194.372 55.3427 193.389 54.4829C191.995 53.3003 190.689 52.0196 189.481 50.6508L163.805 21.837L190.69 12.7541V0L157.183 11.5255C155.254 12.1682 153.567 13.3771 152.346 14.9919C151.134 16.6747 150.424 18.6615 150.296 20.7254C150.027 22.7626 150.555 24.8245 151.771 26.4882C152.979 28.1012 154.274 29.6489 155.649 31.1247L168.569 45.7071L169.852 47.2721C170.265 47.7694 170.633 48.2375 170.958 48.7347C171.282 49.232 171.562 49.5684 171.813 49.9634C172.064 50.3583 172.27 50.7093 172.433 51.0311C172.595 51.3528 172.742 51.6307 172.86 51.8794C172.977 52.0867 173.066 52.3079 173.126 52.5376C173.164 52.6764 173.188 52.8184 173.199 52.9618C173.218 53.5972 173.086 54.2282 172.816 54.8046C172.518 55.3627 172.082 55.836 171.548 56.1795C170.8 56.6522 169.961 56.966 169.085 57.101C167.795 57.3255 166.486 57.4284 165.177 57.4081H136.123C132.299 57.4081 129.565 56.7646 127.923 55.4774C127.071 54.7249 126.406 53.7863 125.981 52.7356C125.556 51.6848 125.383 50.5506 125.475 49.4222V35.4687H112.851V49.3637C112.952 50.4857 112.793 51.6157 112.386 52.6676C111.98 53.7195 111.337 54.6655 110.506 55.4336C108.903 56.7499 106.293 57.4081 102.675 57.4081H94.1654C90.3457 57.4081 87.6026 56.7646 85.9656 55.4774C85.1101 54.7264 84.4423 53.7884 84.0149 52.7375C83.5875 51.6867 83.4121 50.5517 83.5027 49.4222V35.4687H70.8932V49.3637C70.9939 50.4857 70.835 51.6157 70.4286 52.6676C70.0223 53.7195 69.3792 54.6655 68.5483 55.4336C66.985 56.7499 64.3894 57.4081 60.7614 57.4081H35.8374V51.2651C35.8374 45.0051 34.2938 40.193 31.2066 36.829C28.1194 33.4649 23.695 31.7975 17.9335 31.8268C12.1228 31.8268 7.69841 33.4795 4.66034 36.7851C1.62228 40.0906 0.0688236 44.81 0 50.9433C0 57.0571 1.41089 61.7668 4.23265 65.0723C7.05442 68.3778 11.1986 70.0306 16.6651 70.0306H23.4049C23.4199 71.569 23.07 73.0894 22.3834 74.4689C21.6969 75.8485 20.6929 77.0487 19.4525 77.9727C17.0142 79.6986 13.1846 80.5469 7.96387 80.5176H1.19459V93.184H8.17034C16.7143 93.184 23.3459 91.2338 28.0653 87.3335C32.7846 83.4332 35.3753 77.6655 35.8374 70.0306H60.4959C67.7322 70.0306 73.3561 67.9976 77.3675 63.9315C79.3993 65.9973 81.8888 67.5648 84.6383 68.5095C87.713 69.5475 90.9476 70.0426 94.1949 69.9721H102.424C109.651 69.9721 115.275 67.939 119.296 63.8729C121.322 65.9385 123.807 67.5062 126.552 68.451C129.632 69.4881 132.871 69.9831 136.123 69.9136H148.585H165.943C173.878 69.9136 179.423 67.0322 182.579 61.2695C187.495 67.003 193.07 69.8697 199.303 69.8697H223.357C229.345 69.8697 233.892 68.0317 236.999 64.3556C240.106 60.6795 241.659 55.4287 241.659 48.6031V33.5966H229.33L229.345 48.998ZM16.5324 57.3204C15.5139 57.371 14.4991 57.1646 13.5828 56.7207C12.7941 56.2792 12.196 55.5663 11.9016 54.7169C11.4712 53.4861 11.2761 52.1865 11.3264 50.8848C11.1352 48.9674 11.6599 47.047 12.8012 45.4877C13.4658 44.8977 14.247 44.4512 15.095 44.1767C15.943 43.9023 16.8393 43.8058 17.727 43.8935C18.5637 43.8065 19.4094 43.9132 20.1975 44.205C20.9856 44.4969 21.6948 44.966 22.2694 45.5755C23.4053 47.3568 23.9232 49.4574 23.7441 51.5576V57.3204H16.5324Z" fill="white"/>
<path d="M300.99 33.598V48.9994C300.99 52.0563 300.459 54.221 299.398 55.4788C298.742 56.1503 297.944 56.6682 297.061 56.9946C296.179 57.321 295.233 57.4478 294.295 57.3656H270.595C269.54 57.4584 268.477 57.3161 267.484 56.9492C266.492 56.5823 265.594 55.9999 264.858 55.2448C263.649 53.792 263.044 51.3542 263.044 47.9317V5.44238H250.951V48.4436C250.951 55.552 252.543 60.8906 255.729 64.4594C259.101 68.1745 264.017 70.032 270.477 70.032H295.047C301.035 70.032 305.582 68.194 308.689 64.5179C311.796 60.8418 313.349 55.591 313.349 48.7654V33.598H300.99Z" fill="white"/>
<path d="M286.744 80.4304H278.721C277.475 80.4304 276.465 81.4323 276.465 82.6682V90.6103C276.465 91.8462 277.475 92.8481 278.721 92.8481H286.744C287.99 92.8481 289 91.8462 289 90.6103V82.6682C289 81.4323 287.99 80.4304 286.744 80.4304Z" fill="white"/>
<path d="M239.418 17.2451H231.395C230.149 17.2451 229.139 18.247 229.139 19.4829V27.425C229.139 28.6609 230.149 29.6628 231.395 29.6628H239.418C240.664 29.6628 241.675 28.6609 241.675 27.425V19.4829C241.675 18.247 240.664 17.2451 239.418 17.2451Z" fill="white"/>
<path d="M80.9213 17.2451H72.8984C71.6522 17.2451 70.642 18.247 70.642 19.4829V27.425C70.642 28.6609 71.6522 29.6628 72.8984 29.6628H80.9213C82.1675 29.6628 83.1777 28.6609 83.1777 27.425V19.4829C83.1777 18.247 82.1675 17.2451 80.9213 17.2451Z" fill="white"/>
<path d="M108.987 80.4304H100.964C99.7183 80.4304 98.7081 81.4323 98.7081 82.6682V90.6103C98.7081 91.8462 99.7183 92.8481 100.964 92.8481H108.987C110.234 92.8481 111.244 91.8462 111.244 90.6103V82.6682C111.244 81.4323 110.234 80.4304 108.987 80.4304Z" fill="white"/>
<path d="M94.372 80.4304H86.3491C85.1029 80.4304 84.0927 81.4323 84.0927 82.6682V90.6103C84.0927 91.8462 85.1029 92.8481 86.3491 92.8481H94.372C95.6182 92.8481 96.6284 91.8462 96.6284 90.6103V82.6682C96.6284 81.4323 95.6182 80.4304 94.372 80.4304Z" fill="white"/>
</svg>
